<?xml version="1.0" encoding="UTF-8"?>
<svg xmlns="http://www.w3.org/2000/svg" xmlns:xlink="http://www.w3.org/1999/xlink" width="72pt" height="72pt" viewBox="0 0 72 72" version="1.1">
<g id="surface1">
<path style=" stroke:none;fill-rule:nonzero;fill:rgb(0%,0%,0%);fill-opacity:1;" d="M 61.597656 0.015625 C 59.914062 2.449219 58.363281 4.703125 56.773438 6.9375 C 56.640625 7.117188 56.269531 7.179688 56 7.1875 C 52.570312 7.203125 49.144531 7.195312 45.714844 7.195312 C 45.457031 7.195312 45.195312 7.195312 44.835938 7.195312 C 45.398438 8.160156 45.96875 8.988281 46.394531 9.882812 C 46.953125 11.070312 47.457031 12.296875 47.871094 13.542969 C 48.027344 14.015625 48.179688 14.140625 48.648438 14.144531 C 52.636719 14.175781 56.628906 14.226562 60.625 14.269531 C 60.796875 14.269531 60.964844 14.269531 61.203125 14.269531 C 61.160156 14.417969 61.144531 14.535156 61.085938 14.621094 C 59.789062 16.636719 58.480469 18.640625 57.195312 20.671875 C 56.9375 21.074219 56.648438 21.199219 56.179688 21.199219 C 53.609375 21.175781 51.039062 21.191406 48.4375 21.191406 C 48.136719 22.226562 47.875 23.265625 47.53125 24.273438 C 45.132812 31.332031 40.113281 35.566406 33.054688 37.453125 C 30.375 38.167969 27.59375 38.511719 24.835938 39.023438 C 24.972656 39.226562 25.179688 39.578125 25.433594 39.890625 C 28.660156 43.914062 31.878906 47.957031 35.140625 51.960938 C 40.394531 58.414062 45.679688 64.851562 50.945312 71.292969 C 51.097656 71.480469 51.234375 71.6875 51.421875 71.957031 C 51.203125 71.984375 51.054688 72.019531 50.902344 72.019531 C 47.472656 72.027344 44.042969 72.035156 40.617188 72.011719 C 40.328125 72.011719 39.945312 71.839844 39.757812 71.625 C 32.117188 62.664062 24.488281 53.6875 16.839844 44.734375 C 15.96875 43.714844 15.011719 42.761719 14.089844 41.773438 C 13.425781 41.070312 13.074219 40.277344 13.101562 39.261719 C 13.160156 37.453125 13.117188 35.648438 13.117188 33.960938 C 14.601562 33.960938 16.035156 33.960938 17.464844 33.960938 C 21.671875 33.960938 25.828125 33.652344 29.785156 32.066406 C 34.429688 30.199219 37.339844 26.886719 38.179688 21.875 C 38.203125 21.753906 38.21875 21.628906 38.230469 21.515625 C 38.238281 21.441406 38.226562 21.371094 38.21875 21.199219 C 29.011719 21.199219 19.808594 21.199219 10.414062 21.199219 C 11.699219 19.433594 12.972656 17.878906 14.023438 16.183594 C 14.988281 14.636719 16.183594 14.195312 17.992188 14.21875 C 23.992188 14.3125 29.992188 14.1875 35.992188 14.144531 C 36.230469 14.144531 36.46875 14.125 36.800781 14.109375 C 36.265625 12.785156 35.429688 11.789062 34.394531 10.957031 C 32.320312 9.285156 29.871094 8.46875 27.3125 7.9375 C 22.300781 6.902344 17.207031 6.914062 12.117188 6.988281 C 11.683594 6.992188 11.25 6.988281 10.746094 6.988281 C 10.796875 6.835938 10.8125 6.742188 10.855469 6.667969 C 12.136719 4.675781 13.433594 2.6875 14.6875 0.667969 C 14.996094 0.179688 15.320312 -0.0078125 15.902344 -0.0078125 C 29.300781 0.015625 42.699219 0.0078125 56.09375 0.0078125 C 57.851562 0.015625 59.609375 0.015625 61.597656 0.015625 Z M 61.597656 0.015625 "/>
</g>
</svg>
